0.11m3min_grf.mot
version=1
nRows=25
nColumns 19
inDegrees=yes
endheader
time	1_ground_force_vx	1_ground_force_vy	1_ground_force_vz	1_ground_force_px	1_ground_force_py	1_ground_force_pz	1_ground_torque_x	1_ground_torque_y	1_ground_torque_z	2_ground_force_vx	2_ground_force_vy	2_ground_force_vz	2_ground_force_px	2_ground_force_py	2_ground_force_pz	2_ground_torque_x	2_ground_torque_y	2_ground_torque_z
            1.248500	            1.053940	            4.325990	            0.153502	           -0.233013	            0.005581	           -0.255695	            0.686629	           -0.203699	            0.267804	           -0.463034	           11.238388	           -1.883792	           -0.082568	            0.005779	           -0.583883	            0.008304	           -0.201556	            0.033785
            1.249000	            0.732845	            4.146056	            0.061814	           -0.233013	            0.005581	           -0.255695	            0.596903	           -0.213353	            0.310703	           -0.511460	           11.608523	           -2.445595	           -0.087162	            0.005808	           -0.596486	            0.010587	           -0.240301	            0.050625
            1.249500	            0.824743	            3.605080	            0.105123	           -0.233013	            0.005581	           -0.255695	            0.595210	           -0.203905	            0.277080	           -0.747559	           12.158951	           -2.115028	           -0.089778	            0.005854	           -0.612117	            0.007589	           -0.123433	            0.021471
            1.250000	            0.640946	            4.687032	            0.018504	           -0.233013	            0.005581	           -0.255695	            0.673215	           -0.212737	            0.156203	           -0.745689	           11.607510	           -2.398568	           -0.072176	            0.005866	           -0.597775	            0.014443	           -0.224818	            0.046456
            1.250500	            0.732893	            4.506390	            0.109215	           -0.233013	            0.005581	           -0.255695	            0.650842	           -0.194531	            0.235445	           -0.743469	           11.053224	           -1.884330	           -0.072994	            0.005812	           -0.583384	            0.004957	           -0.073703	            0.012565
            1.251000	            0.778331	            3.606054	           -0.124043	           -0.233013	            0.005581	           -0.255695	            0.586119	           -0.222261	            0.237473	           -0.928957	           10.500772	           -2.073934	           -0.059610	            0.005819	           -0.571770	            0.007435	           -0.084041	            0.016598
            1.251500	            0.640557	            4.327287	           -0.166465	           -0.233013	            0.005581	           -0.255695	            0.625135	           -0.194588	            0.231605	           -0.693399	           10.133489	           -2.122276	           -0.066761	            0.005751	           -0.559895	            0.012799	           -0.187051	            0.039174
            1.252000	            0.778769	            4.326134	            0.108329	           -0.233013	            0.005581	           -0.255695	            0.632237	           -0.194594	            0.256250	           -0.511960	           11.791333	           -2.069514	           -0.090320	            0.005832	           -0.606579	            0.010447	           -0.240605	            0.042229
            1.252500	            1.007870	            4.326374	            0.061904	           -0.233013	            0.005581	           -0.255695	            0.652855	           -0.231218	            0.209421	           -0.603769	           11.239386	           -2.306085	           -0.079513	            0.005830	           -0.595055	            0.014585	           -0.271514	            0.055709
            1.253000	            1.145171	            4.326794	           -0.030149	           -0.233013	            0.005581	           -0.255695	            0.675743	           -0.249963	            0.290340	           -0.791833	           11.422858	           -2.305349	           -0.075770	            0.005840	           -0.593973	            0.014304	           -0.206347	            0.041645
            1.253500	            0.778493	            3.966192	           -0.030785	           -0.233013	            0.005581	           -0.255695	            0.601025	           -0.204252	            0.350289	           -0.930327	           10.869403	           -2.166476	           -0.069151	            0.005810	           -0.578858	            0.008129	           -0.094972	            0.018930
            1.254000	            0.641111	            3.785703	            0.014639	           -0.233013	            0.005581	           -0.255695	            0.730198	           -0.175913	            0.193847	           -0.414999	           10.871432	           -2.213623	           -0.074468	            0.005808	           -0.583867	            0.010716	           -0.280730	            0.057162
            1.254500	            0.961685	            4.326955	           -0.075550	           -0.233013	            0.005581	           -0.255695	            0.583956	           -0.241065	            0.339182	           -0.461746	           10.870426	           -1.978963	           -0.066845	            0.005837	           -0.584148	            0.007298	           -0.171808	            0.031278
            1.255000	            0.595463	            3.965567	            0.107238	           -0.233013	            0.005581	           -0.255695	            0.651278	           -0.250216	            0.266956	           -0.654483	           12.343103	           -2.020555	           -0.089024	            0.005869	           -0.615428	            0.007628	           -0.143865	            0.023551
            1.255500	            0.778721	            3.965799	            0.060927	           -0.233013	            0.005581	           -0.255695	            0.615709	           -0.250140	            0.274864	           -0.791812	           11.422691	           -2.258421	           -0.078377	            0.005861	           -0.602402	            0.011851	           -0.170959	            0.033801
            1.256000	            0.962158	            3.605303	            0.058926	           -0.233013	            0.005581	           -0.255695	            0.709775	           -0.259201	            0.263625	           -0.555651	           10.871761	           -2.448204	           -0.078960	            0.005767	           -0.576878	            0.011272	           -0.220547	            0.049665
            1.256500	            0.686840	            3.785909	           -0.031330	           -0.233013	            0.005581	           -0.255695	            0.694770	           -0.268577	            0.251887	           -0.741701	           10.502620	           -2.402510	           -0.073187	            0.005793	           -0.578332	            0.014068	           -0.199211	            0.045570
            1.257000	            0.824953	            4.325553	            0.245783	           -0.233013	            0.005581	           -0.255695	            0.682609	           -0.249858	            0.220246	           -0.604351	           11.422865	           -2.117716	           -0.083330	            0.005843	           -0.602598	            0.009633	           -0.182081	            0.033756
            1.257500	            0.641273	            4.145841	            0.107897	           -0.233013	            0.005581	           -0.255695	            0.632527	           -0.204223	            0.325542	           -0.651886	           11.607012	           -2.163967	           -0.088162	            0.005793	           -0.593479	            0.007505	           -0.133637	            0.024915
            1.258000	            0.778559	            3.605661	           -0.032331	           -0.233013	            0.005581	           -0.255695	            0.582578	           -0.204417	            0.387943	           -0.418863	           11.975317	           -1.928112	           -0.085181	            0.005864	           -0.610385	            0.006550	           -0.187272	            0.030152
            1.258500	            0.778721	            3.965799	            0.060927	           -0.233013	            0.005581	           -0.255695	            0.615659	           -0.231573	            0.256145	           -0.559392	           11.974642	           -1.881124	           -0.083342	            0.005876	           -0.611826	            0.008042	           -0.172150	            0.027043
            1.259000	            1.099963	            3.965271	            0.197698	           -0.233013	            0.005581	           -0.255695	            0.722509	           -0.249967	            0.288282	           -0.651242	           11.423031	           -2.211552	           -0.085184	            0.005813	           -0.595930	            0.010629	           -0.186439	            0.036095
            1.259500	            0.915842	            4.326947	           -0.075436	           -0.233013	            0.005581	           -0.255695	            0.696300	           -0.222094	            0.224241	           -0.647296	           10.318476	           -2.309351	           -0.060318	            0.005830	           -0.575482	            0.015442	           -0.246154	            0.055091
            1.260000	            0.869949	            5.228069	           -0.025602	           -0.233013	            0.005581	           -0.255695	            0.656120	           -0.203473	            0.184837	           -0.509260	           11.054405	           -1.978286	           -0.085117	            0.005804	           -0.593297	            0.008489	           -0.184260	            0.032975
            1.260500	            0.870796	            4.325561	            0.245669	           -0.233013	            0.005581	           -0.255695	            0.795333	           -0.213003	            0.259675	           -0.744983	           11.423027	           -2.305369	           -0.072165	            0.005859	           -0.595785	            0.012358	           -0.189494	            0.038243
